<svg xmlns="http://www.w3.org/2000/svg" viewBox="0 0 120 120" role="img" aria-label="おおきなモンスターの ギガガオーン">
        <circle cx="60" cy="60" r="52" fill="#f3fff1"></circle>
        <ellipse cx="60" cy="70" rx="34" ry="30" fill="#76c96f"></ellipse>
        <ellipse cx="60" cy="46" rx="30" ry="24" fill="#8de081"></ellipse>
        <circle cx="48" cy="50" r="4.5" fill="#2f4f3a"></circle>
        <circle cx="72" cy="50" r="4.5" fill="#2f4f3a"></circle>
        <rect x="45" y="61" width="30" height="14" rx="7" fill="#f7fff5"></rect>
        <rect x="47" y="63" width="4" height="8" rx="2" fill="#ffffff"></rect>
        <rect x="55" y="63" width="4" height="8" rx="2" fill="#ffffff"></rect>
        <rect x="63" y="63" width="4" height="8" rx="2" fill="#ffffff"></rect>
        <rect x="71" y="63" width="4" height="8" rx="2" fill="#ffffff"></rect>
        <path d="M32 86c7-9 17-14 28-14s21 5 28 14l4 14H28z" fill="#4f8f56"></path>
        <path d="M36 33l8-10 7 12-9 6z" fill="#b2f4a4"></path>
        <path d="M84 33l-8-10-7 12 9 6z" fill="#b2f4a4"></path>
      </svg>
