<svg xmlns="http://www.w3.org/2000/svg" viewBox="0 0 120 120" role="img" aria-label="つきよのいたずらをしかける ルナシャドウ">
        <defs>
          <linearGradient id="lunaHair" x1="0%" y1="0%" x2="100%" y2="100%">
            <stop offset="0%" stop-color="#7b8cff"></stop>
            <stop offset="100%" stop-color="#4a2b72"></stop>
          </linearGradient>
          <linearGradient id="lunaDress" x1="0%" y1="0%" x2="100%" y2="100%">
            <stop offset="0%" stop-color="#1f2748"></stop>
            <stop offset="100%" stop-color="#6e56a0"></stop>
          </linearGradient>
        </defs>
        <circle cx="60" cy="60" r="52" fill="#f1f1ff"></circle>
        <path d="M30 46c7-19 18-29 30-29s23 10 30 29l-10 10H40z" fill="url(#lunaHair)"></path>
        <circle cx="60" cy="55" r="24" fill="#ffe8dd"></circle>
        <circle cx="50" cy="54" r="3.8" fill="#533a71"></circle>
        <circle cx="70" cy="54" r="3.8" fill="#533a71"></circle>
        <path d="M48 69c8-8 16-8 24 0" fill="none" stroke="#8fe3ff" stroke-linecap="round" stroke-width="4.3"></path>
        <path d="M37 88c6-11 15-16 23-16s17 5 23 16l4 16H33z" fill="url(#lunaDress)"></path>
        <path d="M80 26a10 10 0 1 0 0 20 12 12 0 1 1 0-20z" fill="#ffd86f"></path>
        <circle cx="37" cy="81" r="5" fill="#8fe3ff"></circle>
        <circle cx="83" cy="81" r="5" fill="#ffd86f"></circle>
      </svg>
